<mxfile host="app.diagrams.net" modified="2021-12-02T14:20:48.937Z" agent="5.0 (Windows NT 10.0; Win64; x64) AppleWebKit/537.36 (KHTML, like Gecko) Chrome/94.0.4606.71 Safari/537.36" etag="nzJIes40z63VSCVo4czR" version="15.8.8" type="github">
  <diagram name="Page-1" id="c7558073-3199-34d8-9f00-42111426c3f3">
    <mxGraphModel dx="1422" dy="762" grid="1" gridSize="10" guides="1" tooltips="1" connect="1" arrows="1" fold="1" page="1" pageScale="1" pageWidth="826" pageHeight="1169" background="none" math="0" shadow="0">
      <root>
        <mxCell id="0" />
        <mxCell id="1" parent="0" />
        <mxCell id="ohkQfGkh49p79hyeSbiT-99" value="SL" style="swimlane;" vertex="1" parent="1">
          <mxGeometry x="50" y="720" width="200" height="200" as="geometry" />
        </mxCell>
        <mxCell id="ohkQfGkh49p79hyeSbiT-100" value="OG" style="swimlane;" vertex="1" parent="1">
          <mxGeometry x="50" y="502" width="200" height="200" as="geometry" />
        </mxCell>
        <mxCell id="ohkQfGkh49p79hyeSbiT-101" value="GIE" style="swimlane;" vertex="1" parent="1">
          <mxGeometry x="20" y="40" width="920" height="360" as="geometry" />
        </mxCell>
        <mxCell id="ohkQfGkh49p79hyeSbiT-102" value="Ecran PC GIE" style="rounded=0;whiteSpace=wrap;html=1;" vertex="1" parent="ohkQfGkh49p79hyeSbiT-101">
          <mxGeometry x="50" y="40" width="120" height="60" as="geometry" />
        </mxCell>
        <mxCell id="ohkQfGkh49p79hyeSbiT-103" value="Option BE/IC cochÃ©e" style="rhombus;whiteSpace=wrap;html=1;" vertex="1" parent="ohkQfGkh49p79hyeSbiT-101">
          <mxGeometry x="60" y="121" width="100" height="100" as="geometry" />
        </mxCell>
        <mxCell id="ohkQfGkh49p79hyeSbiT-105" value="" style="endArrow=classic;html=1;rounded=0;exitX=0.5;exitY=1;exitDx=0;exitDy=0;entryX=0.5;entryY=0;entryDx=0;entryDy=0;" edge="1" parent="ohkQfGkh49p79hyeSbiT-101" source="ohkQfGkh49p79hyeSbiT-102" target="ohkQfGkh49p79hyeSbiT-103">
          <mxGeometry relative="1" as="geometry">
            <mxPoint x="390" y="190" as="sourcePoint" />
            <mxPoint x="490" y="190" as="targetPoint" />
          </mxGeometry>
        </mxCell>
      </root>
    </mxGraphModel>
  </diagram>
</mxfile>
